<svg width="168" height="30" viewBox="0 0 168 30" fill="none" xmlns="http://www.w3.org/2000/svg">
<path d="M24 4H6C4.895 4 4 4.895 4 6V24C4 25.105 4.895 26 6 26H24C25.105 26 26 25.105 26 24V6C26 4.895 25.105 4 24 4ZM10.954 22H8.004V12.508H10.954V22ZM9.449 11.151C8.498 11.151 7.729 10.38 7.729 9.431C7.729 8.482 8.499 7.712 9.449 7.712C10.397 7.712 11.168 8.483 11.168 9.431C11.168 10.38 10.397 11.151 9.449 11.151ZM22.004 22H19.056V17.384C19.056 16.283 19.036 14.867 17.523 14.867C15.988 14.867 15.752 16.066 15.752 17.304V22H12.804V12.508H15.634V13.805H15.674C16.068 13.059 17.03 12.272 18.465 12.272C21.452 12.272 22.004 14.238 22.004 16.794V22Z" fill="white"/>
<path d="M61 3C54.373 3 49 8.373 49 15C49 21.016 53.432 25.984 59.206 26.852V18.18H56.237V15.026H59.206V12.927C59.206 9.452 60.899 7.927 63.787 7.927C65.17 7.927 65.902 8.03 66.248 8.076V10.829H64.278C63.052 10.829 62.624 11.992 62.624 13.302V15.026H66.217L65.73 18.18H62.624V26.877C68.481 26.083 73 21.075 73 15C73 8.373 67.627 3 61 3Z" fill="white"/>
<path d="M120 6.93704C119.043 7.36204 118.015 7.64804 116.936 7.77704C118.038 7.11704 118.883 6.07204 119.281 4.82604C118.251 5.43704 117.109 5.88104 115.893 6.12104C114.92 5.08404 113.534 4.43604 112 4.43604C109.054 4.43604 106.666 6.82504 106.666 9.77004C106.666 10.188 106.714 10.596 106.804 10.985C102.371 10.763 98.441 8.63904 95.809 5.41104C95.351 6.19904 95.088 7.11504 95.088 8.09404C95.088 9.94404 96.029 11.577 97.46 12.533C96.586 12.505 95.763 12.265 95.044 11.866C95.044 11.889 95.044 11.91 95.044 11.933C95.044 14.518 96.882 16.674 99.323 17.163C98.876 17.285 98.404 17.35 97.917 17.35C97.574 17.35 97.239 17.316 96.914 17.255C97.593 19.374 99.563 20.917 101.897 20.96C100.072 22.391 97.772 23.244 95.272 23.244C94.842 23.244 94.417 23.219 93.999 23.169C96.36 24.682 99.163 25.565 102.176 25.565C111.988 25.565 117.352 17.437 117.352 10.388C117.352 10.157 117.347 9.92704 117.337 9.69804C118.38 8.94503 119.285 8.00604 120 6.93704Z" fill="white"/>
<path d="M153 2C145.832 2 140 7.832 140 15C140 22.168 145.832 28 153 28C160.168 28 166 22.168 166 15C166 7.832 160.168 2 153 2ZM149.666 6H156.332C159.457 6 162 8.54202 162 11.666V18.332C162 21.457 159.458 24 156.334 24H149.668C146.543 24 144 21.458 144 18.334V11.668C144 8.54297 146.542 6 149.666 6ZM149.666 8C147.645 8 146 9.64597 146 11.668V18.334C146 20.355 147.646 22 149.668 22H156.334C158.355 22 160 20.354 160 18.332V11.666C160 9.64502 158.354 8 156.332 8H149.666ZM157.668 9.66602C158.036 9.66602 158.334 9.96403 158.334 10.332C158.334 10.7 158.036 11 157.668 11C157.3 11 157 10.7 157 10.332C157 9.96403 157.3 9.66602 157.668 9.66602ZM153 10C155.757 10 158 12.243 158 15C158 17.757 155.757 20 153 20C150.243 20 148 17.757 148 15C148 12.243 150.243 10 153 10ZM153 12C152.204 12 151.441 12.3161 150.879 12.8787C150.316 13.4413 150 14.2044 150 15C150 15.7956 150.316 16.5587 150.879 17.1213C151.441 17.6839 152.204 18 153 18C153.796 18 154.559 17.6839 155.121 17.1213C155.684 16.5587 156 15.7956 156 15C156 14.2044 155.684 13.4413 155.121 12.8787C154.559 12.3161 153.796 12 153 12Z" fill="white"/>
</svg>
